#!OML:ASF E:\Mandelcareful walks\Project 1\Capture day 1\Session 1\Subject1.ASF
:FULLY-SPECIFIED
:DEGREES
791
root 5.76231 16.9963 -0.281251 -163.023 -83.5223 167.252
lowerback 2.13228 0.937244 -3.22547
upperback 3.92328 1.16148 0.342886
thorax 2.76772 0.452529 2.16092
lowerneck -16.3663 5.69791 0.556537
upperneck 34.6579 8.01874 -2.16107
head 14.8874 2.80806 0.299609
rclavicle 3.23025e-015 9.93923e-015
rhumerus -25.4709 -5.47907 -83.5643
rradius 29.0214
rwrist -9.20815
rhand -8.09485 -31.4966
rfingers 7.12502
rthumb 17.8176 -60.7004
lclavicle 3.23025e-015 9.93923e-015
lhumerus -24.4387 -5.17663 91.3169
lradius 26.3763
lwrist 9.9548
lhand -19.1727 -11.6467
lfingers 7.12502
lthumb 7.13848 18.2129
rfemur 0.0178697 -1.26285 10.643
rtibia 2.32502
rfoot -4.99543 -19.2069
rtoes -2.12254
lfemur -11.137 5.52153 -17.5176
ltibia 27.2057
lfoot -19.1977 14.3418
ltoes 5.37911
792
root 5.74234 16.9936 -0.270614 -161.656 -83.48 165.889
lowerback 1.98943 0.948097 -3.32688
upperback 3.88155 1.18403 0.273524
thorax 2.80325 0.462833 2.14838
lowerneck -16.4353 5.62788 0.443447
upperneck 34.4091 7.96189 -2.15381
head 14.7792 2.78407 0.313592
rclavicle -3.77691e-015 2.54444e-014
rhumerus -25.5166 -5.49974 -83.6117
rradius 29.0295
rwrist -9.179
rhand -8.20976 -31.4565
rfingers 7.12502
rthumb 17.707 -60.6703
lclavicle -3.77691e-015 2.54444e-014
lhumerus -24.5438 -4.95536 91.2233
lradius 26.2529
lwrist 9.59361
lhand -19.1719 -11.6866
lfingers 7.12502
lthumb 7.13918 18.173
rfemur -0.073028 -1.26095 10.3993
rtibia 2.65257
rfoot -5.16922 -19.1464
rtoes -2.40951
lfemur -11.0355 5.53076 -17.7706
ltibia 27.1407
lfoot -19.1747 14.4623
ltoes 4.93288
793
root 5.72561 16.9946 -0.258062 -160.52 -83.494 164.766
lowerback 1.8152 0.926867 -3.35144
upperback 3.88784 1.16448 0.22325
thorax 2.90963 0.451557 2.11334
lowerneck -16.5786 5.51706 0.426918
upperneck 34.0971 7.89058 -2.35233
head 14.6778 2.73937 0.227134
rclavicle 4.5472e-015 3.18055e-015
rhumerus -25.5595 -5.37614 -83.6822
rradius 29.176
rwrist -9.19123
rhand -8.4119 -31.4711
rfingers 7.12502
rthumb 17.5125 -60.7023
lclavicle 4.5472e-015 3.18055e-015
lhumerus -24.5805 -4.69911 91.1448
lradius 26.1353
lwrist 9.19265
lhand -19.3015 -11.6192
lfingers 7.12502
lthumb 7.01416 18.2446
rfemur 0.285155 -1.30456 10.1816
rtibia 2.06703
rfoot -4.91542 -19.2817
rtoes -2.79654
lfemur -11.0247 5.49588 -17.9713
ltibia 27.1724
lfoot -19.1652 14.5325
ltoes 4.59197
794
root 5.72135 16.9943 -0.251173 -161.43 -83.5354 165.67
lowerback 1.79816 0.918296 -3.27481
upperback 3.87877 1.15275 0.284716
thorax 2.91053 0.447309 2.13388
lowerneck -16.6362 5.38908 0.290577
upperneck 33.7818 7.76934 -2.39091
head 14.5389 2.68163 0.214916
rclavicle 1.03865e-014 -7.95139e-016
rhumerus -25.5179 -5.32799 -83.6699
rradius 29.1494
rwrist -9.13171
rhand -8.45705 -31.3268
rfingers 7.12502
rthumb 17.469 -60.5619
lclavicle 1.03865e-014 -7.95139e-016
lhumerus -24.6221 -4.47505 91.0933
lradius 26.1064
lwrist 8.94998
lhand -19.4335 -11.7281
lfingers 7.12502
lthumb 6.88668 18.1398
rfemur 1.37254 -1.28594 10.2433
rtibia 3.97569e-015
rfoot -3.89562 -19.479
rtoes -2.68467
lfemur -11.014 5.46455 -17.865
ltibia 27.2461
lfoot -19.3116 14.4553
ltoes 5.01947
795
root 5.72699 16.9955 -0.250128 -165.236 -83.6205 169.552
lowerback 1.94863 0.916108 -2.94581
upperback 3.72665 1.14324 0.437797
thorax 2.671 0.457096 2.10311
lowerneck -16.4783 5.30857 0.385359
upperneck 33.4674 7.68678 -2.59217
head 14.3753 2.64729 0.0979197
rclavicle -4.89507e-015 -1.17283e-014
rhumerus -25.5158 -5.33539 -83.6288
rradius 28.9275
rwrist -9.05966
rhand -8.28382 -30.9405
rfingers 7.12502
rthumb 17.6357 -60.1607
lclavicle -4.89507e-015 -1.17283e-014
lhumerus -24.7939 -4.25652 91.0173
lradius 26.0894
lwrist 8.85694
lhand -19.518 -11.9789
lfingers 7.12502
lthumb 6.80512 17.8917
rfemur 1.27855 -1.23603 10.7586
rtibia 5.56597e-015
rfoot -3.9256 -19.4966
rtoes -2.42449
lfemur -11.1947 5.5275 -17.3671
ltibia 27.3633
lfoot -19.2509 14.4719
ltoes 4.95631
796
root 5.71002 16.9963 -0.24471 -166.465 -83.6565 170.781
lowerback 1.81533 0.897278 -2.77746
upperback 3.67981 1.12413 0.443455
thorax 2.70107 0.453082 2.01629
lowerneck -15.7616 5.14564 0.334764
upperneck 32.4574 7.47978 -2.7118
head 13.7657 2.59343 0.00229971
rclavicle -8.34896e-015 -4.17448e-015
rhumerus -25.5598 -5.29598 -83.6652
rradius 28.8762
rwrist -9.0471
rhand -8.04198 -30.9255
rfingers 7.12502
rthumb 17.8684 -60.1246
lclavicle -8.34896e-015 -4.17448e-015
lhumerus -24.8737 -4.15383 90.9134
lradius 25.9215
lwrist 8.79414
lhand -19.7012 -11.8575
lfingers 7.12502
lthumb 6.62825 18.0187
rfemur 1.36659 -1.22176 10.8864
rtibia 0
rfoot -4.04136 -19.5036
rtoes -2.36871
lfemur -11.2031 5.60793 -17.2373
ltibia 27.4723
lfoot -19.1554 14.4982
ltoes 4.47362
797
root 5.70031 16.994 -0.242007 -166.506 -83.6305 170.799
lowerback 1.74198 0.907679 -2.78482
upperback 3.68726 1.14113 0.416406
thorax 2.74949 0.461039 1.99395
lowerneck -15.7925 5.04897 -0.0281956
upperneck 32.1981 7.26421 -2.13542
head 13.6061 2.55137 0.256331
rclavicle 7.20594e-015 2.18663e-015
rhumerus -25.579 -5.23366 -83.7217
rradius 28.9911
rwrist -9.16417
rhand -8.00099 -31.017
rfingers 7.12502
rthumb 17.9079 -60.2125
lclavicle 7.20594e-015 2.18663e-015
lhumerus -24.8456 -4.1539 90.8417
lradius 25.7095
lwrist 8.62603
lhand -19.8694 -11.32
lfingers 7.12502
lthumb 6.46585 18.5613
rfemur 1.4325 -1.17831 10.8693
rtibia 3.18055e-015
rfoot -4.1058 -19.4744
rtoes -2.30252
lfemur -11.1792 5.6212 -17.2505
ltibia 27.5538
lfoot -19.1608 14.5146
ltoes 4.29559
798
root 5.69336 16.9924 -0.238626 -166.315 -83.6099 170.564
lowerback 1.74804 0.919888 -2.80741
upperback 3.69786 1.15741 0.396772
thorax 2.75617 0.468454 1.98648
lowerneck -15.9042 4.90333 0.0143666
upperneck 31.9734 7.07849 -2.22371
head 13.5372 2.47491 0.187258
rclavicle 3.97569e-015 -1.68967e-015
rhumerus -25.5291 -5.21158 -83.767
rradius 29.0229
rwrist -9.33829
rhand -8.23038 -30.8101
rfingers 7.12502
rthumb 17.6872 -60.0257
lclavicle 3.97569e-015 -1.68967e-015
lhumerus -24.8551 -4.09309 90.7766
lradius 25.5785
lwrist 8.38451
lhand -19.9295 -11.1375
lfingers 7.12502
lthumb 6.40792 18.7455
rfemur 1.50589 -1.14371 10.8199
rtibia -1.19271e-014
rfoot -4.1118 -19.4623
rtoes -2.38962
lfemur -11.1293 5.59987 -17.3018
ltibia 27.5599
lfoot -19.1111 14.6073
ltoes 3.644
799
root 5.68502 16.9943 -0.234756 -165.503 -83.5473 169.762
lowerback 1.62113 0.927306 -2.91608
upperback 3.74097 1.17188 0.381712
thorax 2.87 0.470372 2.03457
lowerneck -16.2029 4.79834 0.0472448
upperneck 31.8611 6.99755 -2.41372
head 13.5643 2.42148 0.10251
rclavicle 2.85753e-015 -1.49089e-015
rhumerus -25.3906 -5.23029 -83.783
rradius 29.038
rwrist -9.33675
rhand -8.29818 -30.7587
rfingers 7.12502
rthumb 17.6219 -59.9801
lclavicle 2.85753e-015 -1.49089e-015
lhumerus -24.7452 -3.90795 90.7082
lradius 25.3808
lwrist 8.13288
lhand -20.0039 -11.4309
lfingers 7.12502
lthumb 6.33606 18.4544
rfemur 1.50981 -1.09394 10.692
rtibia 7.95139e-015
rfoot -4.06458 -19.4505
rtoes -2.32891
lfemur -11.0993 5.65164 -17.438
ltibia 27.5527
lfoot -19.0892 14.6236
ltoes 3.11487
800
root 5.67507 16.996 -0.23061 -164.095 -83.4728 168.407
lowerback 1.41961 0.921266 -3.1003
upperback 3.76915 1.1724 0.367396
thorax 3.01007 0.463106 2.12687
lowerneck -16.5643 4.76012 -0.087912
upperneck 31.8101 7.01011 -2.42283
head 13.6161 2.41032 0.134128
rclavicle -1.25731e-014 4.17448e-015
rhumerus -25.3468 -5.26113 -83.7585
rradius 29.186
rwrist -9.22971
rhand -8.0686 -31.1123
rfingers 7.12502
rthumb 17.8428 -60.3138
lclavicle -1.25731e-014 4.17448e-015
lhumerus -24.6329 -3.65521 90.666
lradius 25.1933
lwrist 7.95531
lhand -19.9404 -11.4718
lfingers 7.12502
lthumb 6.39737 18.4116
rfemur 1.46872 -1.05908 10.4897
rtibia -4.77083e-015
rfoot -4.03009 -19.4564
rtoes -2.23503
lfemur -11.0792 5.66963 -17.6462
ltibia 27.559
lfoot -19.2339 14.5686
ltoes 3.51265
801
root 5.66336 16.9941 -0.225503 -163.894 -83.4493 168.246
lowerback 1.36261 0.895224 -3.11816
upperback 3.68402 1.14102 0.384548
thorax 2.95527 0.4499 2.15441
lowerneck -16.5643 4.6701 -0.202772
upperneck 31.691 6.88444 -2.32776
head 13.5529 2.36115 0.170012
rclavicle -5.56597e-015 -9.93923e-016
rhumerus -25.5218 -5.13665 -83.7673
rradius 29.3604
rwrist -9.30015
rhand -8.04082 -31.4233
rfingers 7.12502
rthumb 17.8696 -60.6223
lclavicle -5.56597e-015 -9.93923e-016
lhumerus -24.7924 -3.33902 90.6155
lradius 25.1593
lwrist 7.85431
lhand -19.7361 -11.143
lfingers 7.12502
lthumb 6.59456 18.7343
rfemur 1.45821 -1.03494 10.4351
rtibia 9.54166e-015
rfoot -4.07266 -19.5084
rtoes -2.31489
lfemur -11.0433 5.59758 -17.6976
ltibia 27.5835
lfoot -19.4445 14.5423
ltoes 4.57967
802
root 5.65355 16.9916 -0.222704 -164.663 -83.4303 169.036
lowerback 1.35356 0.869447 -3.04842
upperback 3.59975 1.10692 0.430908
thorax 2.87534 0.437618 2.1621
lowerneck -16.6557 4.6243 -0.404255
upperneck 31.6616 6.81892 -2.1229
head 13.5401 2.33815 0.276108
rclavicle -3.03147e-015 3.77691e-015
rhumerus -25.6137 -4.89134 -83.8097
rradius 29.4002
rwrist -9.54131
rhand -8.17433 -31.4464
rfingers 7.12502
rthumb 17.7411 -60.6571
lclavicle -3.03147e-015 3.77691e-015
lhumerus -25.0291 -2.94219 90.5318
lradius 25.2707
lwrist 7.61471
lhand -19.5926 -10.7461
lfingers 7.12502
lthumb 6.73311 19.1269
rfemur 1.47457 -0.980995 10.505
rtibia -4.77083e-015
rfoot -4.04873 -19.655
rtoes -1.76208
lfemur -11.0051 5.53781 -17.6209
ltibia 27.5946
lfoot -19.5637 14.5799
ltoes 5.15557
